<?xml version="1.0" encoding="UTF-8"?>
<svg xmlns="http://www.w3.org/2000/svg" width="960" height="340" viewBox="0 0 960 340">
  <rect width="960" height="340" fill="white"/>
  <text x="480" y="32" text-anchor="middle" font-family="Helvetica, Arial, sans-serif" font-size="18" font-weight="bold" fill="#222">Konkurrenzausschluss</text>

  <rect x="30" y="55" width="280" height="250" rx="14" fill="#eaf2fb" stroke="#2980b9" stroke-width="3"/>
  <text x="170" y="90" text-anchor="middle" font-family="Helvetica, Arial, sans-serif" font-size="15" font-weight="bold" fill="#1a5276">Allein</text>
  
  <ellipse cx="120" cy="150" rx="25.2" ry="14.4" fill="#5dade2" stroke="#1a5276" stroke-width="2"/>
  <circle cx="112.8" cy="148.2" r="2.7" fill="#1a5276"/>
  <circle cx="125.4" cy="148.2" r="2.7" fill="#1a5276"/>

  
  <ellipse cx="200" cy="170" rx="25.2" ry="14.4" fill="#27ae60" stroke="#1a5276" stroke-width="2"/>
  <circle cx="192.8" cy="168.2" r="2.7" fill="#1a5276"/>
  <circle cx="205.4" cy="168.2" r="2.7" fill="#1a5276"/>

  <text x="170" y="230" text-anchor="middle" font-family="Helvetica, Arial, sans-serif" font-size="13" fill="#333">beide Arten OK</text>
  <text x="170" y="255" text-anchor="middle" font-family="Helvetica, Arial, sans-serif" font-size="12" fill="#555">(eigene Kultur)</text>

  <text x="350" y="180" font-family="Helvetica, Arial, sans-serif" font-size="36" fill="#7f8c8d">→</text>

  <rect x="400" y="55" width="280" height="250" rx="14" fill="#fdedec" stroke="#c0392b" stroke-width="3"/>
  <text x="540" y="90" text-anchor="middle" font-family="Helvetica, Arial, sans-serif" font-size="15" font-weight="bold" fill="#922b21">Zusammen</text>
  
  <ellipse cx="480" cy="145" rx="23.8" ry="13.6" fill="#27ae60" stroke="#1a5276" stroke-width="2"/>
  <circle cx="473.2" cy="143.3" r="2.55" fill="#1a5276"/>
  <circle cx="485.1" cy="143.3" r="2.55" fill="#1a5276"/>

  
  <ellipse cx="560" cy="165" rx="23.8" ry="13.6" fill="#27ae60" stroke="#1a5276" stroke-width="2"/>
  <circle cx="553.2" cy="163.3" r="2.55" fill="#1a5276"/>
  <circle cx="565.1" cy="163.3" r="2.55" fill="#1a5276"/>

  <line x1="500" y1="200" x2="540" y2="230" stroke="#c0392b" stroke-width="3"/>
  <line x1="540" y1="200" x2="500" y2="230" stroke="#c0392b" stroke-width="3"/>
  <ellipse cx="520" cy="215" rx="20" ry="10" fill="none" stroke="#85c1e9" stroke-width="2" stroke-dasharray="3 2"/>
  <text x="540" y="270" text-anchor="middle" font-family="Helvetica, Arial, sans-serif" font-size="13" fill="#333">eine Art weg</text>

  <rect x="720" y="100" width="210" height="160" rx="12" fill="#f8f9f9" stroke="#5d6d7e" stroke-width="2"/>
  <text x="825" y="150" text-anchor="middle" font-family="Helvetica, Arial, sans-serif" font-size="14" font-weight="bold" fill="#2c3e50">Gleiche</text>
  <text x="825" y="175" text-anchor="middle" font-family="Helvetica, Arial, sans-serif" font-size="14" font-weight="bold" fill="#2c3e50">Ressource</text>
  <text x="825" y="210" text-anchor="middle" font-family="Helvetica, Arial, sans-serif" font-size="13" fill="#555">stärkerer</text>
  <text x="825" y="232" text-anchor="middle" font-family="Helvetica, Arial, sans-serif" font-size="13" fill="#555">Konkurrent gewinnt</text>
</svg>
