<?xml version="1.0" encoding="UTF-8"?>
<svg xmlns="http://www.w3.org/2000/svg" width="980" height="320" viewBox="0 0 980 320">
  <rect width="980" height="320" fill="white"/>
  <text x="490" y="36" text-anchor="middle" font-family="Helvetica, Arial, sans-serif" font-size="18" font-weight="bold" fill="#222">Ein Zeitschritt als Comic</text>

  <rect x="30" y="55" width="280" height="220" rx="14" fill="#eaf2fb" stroke="#2980b9" stroke-width="3"/>
  <text x="170" y="90" text-anchor="middle" font-family="Helvetica, Arial, sans-serif" font-size="16" font-weight="bold" fill="#1a5276">1 · Jetzt: N</text>
  
  <ellipse cx="120" cy="150" rx="28" ry="16" fill="#5dade2" stroke="#1a5276" stroke-width="2"/>
  <circle cx="112" cy="148" r="3" fill="#1a5276"/>
  <circle cx="126" cy="148" r="3" fill="#1a5276"/>

  
  <ellipse cx="180" cy="170" rx="28" ry="16" fill="#5dade2" stroke="#1a5276" stroke-width="2"/>
  <circle cx="172" cy="168" r="3" fill="#1a5276"/>
  <circle cx="186" cy="168" r="3" fill="#1a5276"/>

  
  <ellipse cx="220" cy="145" rx="28" ry="16" fill="#5dade2" stroke="#1a5276" stroke-width="2"/>
  <circle cx="212" cy="143" r="3" fill="#1a5276"/>
  <circle cx="226" cy="143" r="3" fill="#1a5276"/>

  <text x="170" y="230" text-anchor="middle" font-family="Helvetica, Arial, sans-serif" font-size="13" fill="#333">Population jetzt</text>

  <rect x="350" y="55" width="280" height="220" rx="14" fill="#eafaf1" stroke="#27ae60" stroke-width="3"/>
  <text x="490" y="90" text-anchor="middle" font-family="Helvetica, Arial, sans-serif" font-size="16" font-weight="bold" fill="#196f3d">2 · + r · Nachwuchs</text>
  
  <ellipse cx="430" cy="140" rx="23.8" ry="13.6" fill="#5dade2" stroke="#1a5276" stroke-width="2"/>
  <circle cx="423.2" cy="138.3" r="2.55" fill="#1a5276"/>
  <circle cx="435.1" cy="138.3" r="2.55" fill="#1a5276"/>

  
  <ellipse cx="480" cy="160" rx="16.8" ry="9.6" fill="#85c1e9" stroke="#1a5276" stroke-width="2"/>
  <circle cx="475.2" cy="158.8" r="1.7999999999999998" fill="#1a5276"/>
  <circle cx="483.6" cy="158.8" r="1.7999999999999998" fill="#1a5276"/>

  
  <ellipse cx="520" cy="135" rx="23.8" ry="13.6" fill="#5dade2" stroke="#1a5276" stroke-width="2"/>
  <circle cx="513.2" cy="133.3" r="2.55" fill="#1a5276"/>
  <circle cx="525.1" cy="133.3" r="2.55" fill="#1a5276"/>

  
  <ellipse cx="550" cy="165" rx="15.400000000000002" ry="8.8" fill="#85c1e9" stroke="#1a5276" stroke-width="2"/>
  <circle cx="545.6" cy="163.9" r="1.6500000000000001" fill="#1a5276"/>
  <circle cx="553.3" cy="163.9" r="1.6500000000000001" fill="#1a5276"/>

  <text x="490" y="230" text-anchor="middle" font-family="Helvetica, Arial, sans-serif" font-size="13" fill="#333">mehr Individuen</text>

  <rect x="670" y="55" width="280" height="220" rx="14" fill="#fef5e7" stroke="#d68910" stroke-width="3"/>
  <text x="810" y="90" text-anchor="middle" font-family="Helvetica, Arial, sans-serif" font-size="16" font-weight="bold" fill="#7e5109">3 · (1 - N/K) Bremse</text>
  
  <ellipse cx="760" cy="140" rx="19.599999999999998" ry="11.2" fill="#5dade2" stroke="#1a5276" stroke-width="2"/>
  <circle cx="754.4" cy="138.6" r="2.0999999999999996" fill="#1a5276"/>
  <circle cx="764.2" cy="138.6" r="2.0999999999999996" fill="#1a5276"/>

  
  <ellipse cx="800" cy="155" rx="19.599999999999998" ry="11.2" fill="#5dade2" stroke="#1a5276" stroke-width="2"/>
  <circle cx="794.4" cy="153.6" r="2.0999999999999996" fill="#1a5276"/>
  <circle cx="804.2" cy="153.6" r="2.0999999999999996" fill="#1a5276"/>

  
  <ellipse cx="840" cy="140" rx="19.599999999999998" ry="11.2" fill="#5dade2" stroke="#1a5276" stroke-width="2"/>
  <circle cx="834.4" cy="138.6" r="2.0999999999999996" fill="#1a5276"/>
  <circle cx="844.2" cy="138.6" r="2.0999999999999996" fill="#1a5276"/>

  <rect x="780" y="175" width="60" height="28" rx="4" fill="#c0392b"/><text x="810" y="195" text-anchor="middle" font-family="Helvetica, Arial, sans-serif" font-size="12" font-weight="bold" fill="white">STOP</text>
  <text x="810" y="235" text-anchor="middle" font-family="Helvetica, Arial, sans-serif" font-size="13" fill="#333">nahe K: kaum Wachstum</text>
</svg>
